<svg width="512" height="201" viewBox="0 0 512 201" fill="none" xmlns="http://www.w3.org/2000/svg">
<g clip-path="url(#clip0_2_20566)">
<path d="M83.1445 0H56.263C29.3814 0 6.25075 20.0049 6.25075 58.7643C6.25075 81.895 17.5035 99.3993 36.8832 108.151L0.62438 173.167C-0.625925 175.043 0.62438 176.918 2.49984 176.918H19.379C20.6293 176.918 21.8796 176.293 22.5047 175.043L55.6378 111.277H67.5157V175.043C67.5157 175.668 68.1409 176.918 69.3912 176.918H84.3948C85.6451 176.918 86.2703 176.293 86.2703 175.043V2.50061C85.6451 0.625153 85.02 0 83.1445 0ZM67.5157 96.2735H57.5133C14.3777 96.2735 17.5035 15.0037 55.6378 15.0037H68.1409V96.2735H67.5157Z" fill="#FF0000"/>
<path d="M173.168 58.7649H158.164C156.914 58.7649 156.288 59.39 156.288 60.6403V105.651H128.782V60.6403C128.782 59.39 128.157 58.7649 126.906 58.7649H112.528C111.277 58.7649 110.652 59.39 110.652 60.6403V175.043C110.652 176.294 111.277 176.919 112.528 176.919H127.531C128.782 176.919 129.407 176.294 129.407 175.043V120.03H156.914V175.043C156.914 176.294 157.539 176.919 158.789 176.919H173.793C175.043 176.919 175.668 176.294 175.668 175.043V60.6403C175.043 59.39 174.418 58.7649 173.168 58.7649ZM510.75 161.29C510.75 160.665 510.125 160.665 509.5 160.665C503.248 160.665 465.114 178.794 465.114 118.78C465.114 92.5231 475.116 55.6391 498.872 77.5195C499.497 78.1446 500.122 78.1446 500.748 78.1446C501.373 78.1446 501.998 77.5195 502.623 76.2691L508.875 65.6416C509.5 65.0164 509.5 64.3912 509.5 63.7661C509.5 62.5158 508.249 61.8906 506.999 61.2655C465.739 40.6354 444.484 78.7698 444.484 123.156C444.484 180.67 486.369 188.797 510.125 171.292C511.375 170.667 511.375 169.417 511.375 168.792L510.75 161.29ZM408.225 111.903L436.982 60.0152C437.607 59.39 436.982 58.1397 436.357 58.1397H421.978C417.602 58.1397 416.352 59.39 415.102 62.5158C413.851 65.6415 392.596 110.027 390.096 111.903V60.0152C390.096 59.39 389.47 58.1397 388.845 58.1397H373.216C372.591 58.1397 371.966 58.7649 371.966 60.0152V175.043C371.966 175.668 372.591 176.919 373.216 176.919H388.845C390.096 176.919 390.096 176.294 390.096 175.043V115.654C391.971 116.904 418.227 171.292 418.853 173.168C420.103 175.668 422.604 176.919 425.729 176.919H441.358C442.608 176.919 442.608 176.294 441.983 175.043L408.225 111.903ZM271.317 161.915H268.191C264.44 161.915 263.815 160.665 263.815 157.539V60.0152C263.815 58.7649 263.19 58.1397 262.564 58.1397H214.428C213.177 58.1397 212.552 58.7649 212.552 60.0152C212.552 86.2716 213.177 130.032 195.673 161.915H190.672C189.422 161.915 188.796 162.54 188.796 163.791V198.174C188.796 199.424 190.047 200.049 190.672 200.049H201.925C204.425 200.049 205.676 198.174 205.676 196.298V176.919H256.313V198.174C256.313 198.799 256.938 200.049 258.188 200.049H270.691C271.942 200.049 273.817 198.799 273.817 196.298V163.791C273.192 162.54 272.567 161.915 271.317 161.915ZM245.06 161.915H210.052C220.054 145.661 229.431 119.405 229.431 73.1434H245.06V161.915ZM320.078 55.6391C294.447 55.6391 282.569 87.5219 282.569 122.53C282.569 180.044 322.579 188.797 350.086 171.918C351.336 171.292 351.336 170.667 351.336 170.042L349.461 161.915C349.461 161.29 348.836 160.665 347.585 160.665C337.583 160.665 302.574 178.169 302.574 121.28C315.077 122.53 315.077 122.53 352.586 122.53C351.961 93.7734 348.836 55.6391 320.078 55.6391ZM303.199 108.152C303.199 62.5158 333.207 53.7636 333.207 106.902C320.078 106.902 314.452 106.902 303.199 108.152Z" fill="black"/>
</g>
<defs>
<clipPath id="clip0_2_20566">
<rect width="512" height="201" fill="white"/>
</clipPath>
</defs>
</svg>
